<?xml version="1.0" encoding="UTF-8" standalone="no"?>
<!-- Created with Inkscape (http://www.inkscape.org/) -->

<svg
   xmlns:dc="http://purl.org/dc/elements/1.1/"
   xmlns:cc="http://creativecommons.org/ns#"
   xmlns:rdf="http://www.w3.org/1999/02/22-rdf-syntax-ns#"
   xmlns:svg="http://www.w3.org/2000/svg"
   xmlns="http://www.w3.org/2000/svg"
   xmlns:xlink="http://www.w3.org/1999/xlink"
   xmlns:sodipodi="http://sodipodi.sourceforge.net/DTD/sodipodi-0.dtd"
   xmlns:inkscape="http://www.inkscape.org/namespaces/inkscape"
   width="256"
   height="265"
   viewBox="0 0 67.733332 70.114585"
   version="1.1"
   id="svg8"
   inkscape:version="0.92.0 r"
   sodipodi:docname="snman.svg">
  <defs
     id="defs2">
    <linearGradient
       inkscape:collect="always"
       id="linearGradient4594">
      <stop
         style="stop-color:#a55c14;stop-opacity:1"
         offset="0"
         id="stop4590" />
      <stop
         id="stop4598"
         offset="0.15335"
         style="stop-color:#c26c18;stop-opacity:1" />
      <stop
         style="stop-color:#e48931;stop-opacity:1"
         offset="1"
         id="stop4592" />
    </linearGradient>
    <linearGradient
       inkscape:collect="always"
       id="linearGradient911">
      <stop
         style="stop-color:#babdb6;stop-opacity:1"
         offset="0"
         id="stop907" />
      <stop
         style="stop-color:#eeeeec;stop-opacity:1"
         offset="1"
         id="stop909" />
    </linearGradient>
    <linearGradient
       id="linearGradient903"
       inkscape:collect="always">
      <stop
         style="stop-color:#eeeeec;stop-opacity:1"
         offset="0"
         id="stop899" />
      <stop
         id="stop905"
         offset="0.47435015"
         style="stop-color:#babdb6;stop-opacity:1" />
      <stop
         id="stop901"
         offset="1"
         style="stop-color:#eeeeec;stop-opacity:1" />
    </linearGradient>
    <linearGradient
       inkscape:collect="always"
       id="linearGradient5037">
      <stop
         style="stop-color:#babdb6;stop-opacity:1"
         offset="0"
         id="stop5031" />
      <stop
         id="stop5033"
         offset="0.49326104"
         style="stop-color:#eeeeec;stop-opacity:1" />
      <stop
         style="stop-color:#a0a49a;stop-opacity:1"
         offset="1"
         id="stop5035" />
    </linearGradient>
    <linearGradient
       inkscape:collect="always"
       id="linearGradient4632">
      <stop
         style="stop-color:#babdb6;stop-opacity:1"
         offset="0"
         id="stop4626" />
      <stop
         id="stop4628"
         offset="0.33918676"
         style="stop-color:#eeeeec;stop-opacity:1" />
      <stop
         style="stop-color:#a0a49a;stop-opacity:1"
         offset="1"
         id="stop4630" />
    </linearGradient>
    <linearGradient
       inkscape:collect="always"
       xlink:href="#linearGradient4632"
       id="linearGradient4683"
       gradientUnits="userSpaceOnUse"
       x1="53.593525"
       y1="88.498573"
       x2="134.9881"
       y2="109.31765" />
    <linearGradient
       inkscape:collect="always"
       xlink:href="#linearGradient5037"
       id="linearGradient4685"
       gradientUnits="userSpaceOnUse"
       x1="67.523369"
       y1="78.783257"
       x2="97.757454"
       y2="79.944733" />
    <linearGradient
       inkscape:collect="always"
       xlink:href="#linearGradient903"
       id="linearGradient895"
       x1="42.622837"
       y1="137.82686"
       x2="124.44994"
       y2="152.94698"
       gradientUnits="userSpaceOnUse"
       gradientTransform="translate(14.967094,31.430896)" />
    <linearGradient
       inkscape:collect="always"
       xlink:href="#linearGradient911"
       id="linearGradient913"
       x1="70.613892"
       y1="166.89259"
       x2="113.06211"
       y2="175.77446"
       gradientUnits="userSpaceOnUse"
       gradientTransform="translate(14.967094,31.430896)" />
    <linearGradient
       inkscape:collect="always"
       xlink:href="#linearGradient4594"
       id="linearGradient4596"
       x1="76.384964"
       y1="126.00484"
       x2="58.6716"
       y2="121.11669"
       gradientUnits="userSpaceOnUse"
       gradientTransform="translate(14.967094,31.430896)" />
    <filter
       inkscape:collect="always"
       style="color-interpolation-filters:sRGB"
       id="filter4858"
       x="-0.46569291"
       width="1.9313858"
       y="-0.090251282"
       height="1.1805027">
      <feGaussianBlur
         inkscape:collect="always"
         stdDeviation="1.1713962"
         id="feGaussianBlur4860" />
    </filter>
    <clipPath
       clipPathUnits="userSpaceOnUse"
       id="clipPath4870">
      <path
         sodipodi:nodetypes="cccc"
         inkscape:connector-curvature="0"
         id="path4872"
         d="m 99.897224,139.48772 6.108706,0.74286 c 4.29319,2.80618 13.21587,24.47073 7.43933,35.58872 l -8.70157,-3.89423"
         style="fill:#888a85;fill-opacity:1;fill-rule:evenodd;stroke:none;stroke-width:1.85208333;stroke-linecap:round;stroke-linejoin:round;stroke-miterlimit:4;stroke-dasharray:none;stroke-opacity:1" />
    </clipPath>
    <filter
       inkscape:collect="always"
       style="color-interpolation-filters:sRGB"
       id="filter1746"
       x="-0.063889024"
       width="1.127778"
       y="-0.056557272"
       height="1.1131145">
      <feGaussianBlur
         inkscape:collect="always"
         stdDeviation="1.1954612"
         id="feGaussianBlur1748" />
    </filter>
  </defs>
  <sodipodi:namedview
     id="base"
     pagecolor="#ffffff"
     bordercolor="#666666"
     borderopacity="1.0"
     inkscape:pageopacity="0.0"
     inkscape:pageshadow="2"
     inkscape:zoom="2.0000001"
     inkscape:cx="265.19722"
     inkscape:cy="150.48347"
     inkscape:document-units="px"
     inkscape:current-layer="layer1"
     showgrid="true"
     inkscape:object-paths="true"
     inkscape:snap-center="true"
     inkscape:snap-global="false"
     inkscape:window-width="1364"
     inkscape:window-height="749"
     inkscape:window-x="0"
     inkscape:window-y="17"
     inkscape:window-maximized="0"
     inkscape:object-nodes="true"
     inkscape:snap-intersection-paths="true"
     inkscape:snap-smooth-nodes="true"
     units="px"
     inkscape:snap-others="true"
     inkscape:snap-page="true"
     inkscape:snap-grids="false" />
  <metadata
     id="metadata5">
    <rdf:RDF>
      <cc:Work
         rdf:about="">
        <dc:format>image/svg+xml</dc:format>
        <dc:type
           rdf:resource="http://purl.org/dc/dcmitype/StillImage" />
        <dc:title />
      </cc:Work>
    </rdf:RDF>
  </metadata>
  <g
     inkscape:label="Layer 1"
     inkscape:groupmode="layer"
     id="layer1"
     transform="translate(0,-226.88541)">
    <path
       style="fill:#2e3436;fill-opacity:1;fill-rule:evenodd;stroke:none;stroke-width:0.75423712;stroke-linecap:round;stroke-linejoin:round;stroke-miterlimit:4;stroke-dasharray:none;stroke-opacity:1;filter:url(#filter1746);opacity:0.75"
       d="m 36.367805,239.63141 c -0.565007,-0.003 -1.067382,0.11826 -1.421617,0.41238 -0.293285,0.24351 -0.65741,1.08817 -1.257289,2.34973 -1.715432,3.60761 -3.152516,8.16567 -4.76095,13.07362 -1.557215,-0.0112 -3.133723,0.0743 -4.726325,0.26406 -2.958701,-0.71454 -2.992264,1.37233 -2.306836,2.7833 0.857508,1.76519 2.315283,3.52949 4.171322,5.1971 -0.577267,1.52673 -1.188431,3.05733 -1.854151,4.57749 -0.645599,1.47422 -2.452743,3.07469 -3.140893,5.00745 l -0.225826,0.63304 c -1.65675,-0.23745 -3.365689,-0.48221 -5.2002,-0.73536 l -3.542419,7.58972 -0.49351,4.71961 c 13.051175,3.23556 20.232649,3.44925 30.903023,4.85655 l 3.890719,-0.01 c 2.352421,-4.52747 -1.281444,-13.34969 -3.029789,-14.49248 l -2.487705,-0.30282 c -2.940468,0.22883 -6.034286,0.0964 -9.491409,-0.25011 0.4737,-2.12164 1.009346,-4.44092 1.569414,-6.80734 5.75623,3.13791 12.598899,5.20236 18.149278,4.97437 0.0446,0.0483 0.08922,0.0957 0.134877,0.13901 0.01879,0.0178 0.0379,0.0337 0.05684,0.0507 0.05581,0.05 0.112054,0.0963 0.168981,0.13901 0.02323,0.0174 0.04639,0.0349 0.06976,0.0512 0.07269,0.0504 0.145484,0.0971 0.21911,0.1359 0.01026,0.005 0.02074,0.009 0.03101,0.014 0.06626,0.0335 0.132559,0.0621 0.198953,0.0863 0.02381,0.009 0.04752,0.0163 0.07131,0.0238 0.05862,0.0185 0.116985,0.0331 0.175183,0.0444 0.01812,0.004 0.03621,0.009 0.05426,0.0114 0.07354,0.0116 0.146563,0.0173 0.21859,0.0176 0.02056,9e-5 0.04059,-0.002 0.06098,-0.003 0.05322,-0.002 0.105704,-0.007 0.157612,-0.0155 0.01805,-0.003 0.03639,-0.004 0.05426,-0.008 l 5.16e-4,10e-4 v 5.2e-4 c 0,0 1.649471,0.007 2.342494,-0.61288 0.05665,-0.0507 0.108767,-0.10663 0.157612,-0.16588 0.01384,-0.0168 0.02553,-0.0358 0.03876,-0.0532 0.03428,-0.0452 0.06795,-0.0911 0.09818,-0.14056 0.01265,-0.0207 0.02318,-0.0432 0.03514,-0.0646 0.02633,-0.0471 0.05192,-0.0948 0.07493,-0.14521 0.01339,-0.0293 0.02543,-0.06 0.03772,-0.0904 0.01863,-0.0461 0.03708,-0.0926 0.05323,-0.14108 0.01122,-0.0337 0.02148,-0.0681 0.03152,-0.10283 0.0149,-0.0515 0.02847,-0.10389 0.04082,-0.15762 5.29e-4,-0.002 0.0015,-0.005 0.0021,-0.007 0.92344,-0.60503 1.296955,-1.5669 -0.125574,-2.62516 -0.03654,-0.15354 -0.07957,-0.30666 -0.124024,-0.45992 -0.03804,-0.13114 -0.08115,-0.26032 -0.124542,-0.39016 -0.03042,-0.0911 -0.05807,-0.18234 -0.09095,-0.27234 -0.05069,-0.13875 -0.107188,-0.27306 -0.163296,-0.40824 -0.03506,-0.0845 -0.06687,-0.17106 -0.10387,-0.25373 -7.94e-4,-0.002 -0.0015,-0.004 -0.0026,-0.006 -0.05182,-0.11559 -0.105902,-0.22872 -0.161229,-0.34004 -5.256001,-6.09634 -11.677237,-9.91806 -18.729608,-11.46751 1.486051,-5.36333 3.008797,-10.08082 4.35529,-12.72481 0.483765,-0.94993 0.524124,-1.58543 0.398942,-1.81901 -0.505211,-0.94264 -2.763092,-2.07176 -4.458126,-2.08101 z"
       id="path1580"
       inkscape:connector-curvature="0" />
    <g
       id="g1578">
      <g
         transform="matrix(0.40723717,0,0,0.40723717,-6.949845,203.83379)"
         id="g1033">
        <path
           style="fill:url(#linearGradient4596);fill-opacity:1;fill-rule:evenodd;stroke:#6d3600;stroke-width:1.85208333;stroke-linecap:round;stroke-linejoin:round;stroke-miterlimit:4;stroke-dasharray:none;stroke-opacity:1"
           d="m 56.828423,191.66898 9.379528,-26.29547 c 1.689802,-4.74604 6.127688,-8.67634 7.713003,-12.29639 10.125178,-23.12073 15.510058,-47.26534 23.271975,-63.588891 1.473039,-3.097847 2.366419,-5.171357 3.086601,-5.769322 3.47939,-2.888949 12.78381,1.010844 14.43792,4.09715 0.30739,0.573569 0.20912,2.133748 -0.9788,4.466366 C 102.27291,114.79666 85.581605,198.31937 85.581605,198.31937"
           id="path4701"
           inkscape:connector-curvature="0"
           sodipodi:nodetypes="ccsssssc" />
        <path
           sodipodi:type="inkscape:offset"
           inkscape:radius="-1.7858572"
           inkscape:original="M 88.802734 51.275391 C 87.415309 51.26782 86.182349 51.564872 85.3125 52.287109 C 84.592323 52.885074 83.699601 54.958794 82.226562 58.056641 C 74.464646 74.380191 69.078303 98.525758 58.953125 121.64648 C 57.36781 125.26653 52.930036 129.19732 51.240234 133.94336 L 41.861328 160.23828 L 70.615234 166.88867 C 70.615234 166.88867 87.305747 83.365803 98.771484 60.851562 C 99.959403 58.518945 100.05739 56.958335 99.75 56.384766 C 98.509421 54.070036 92.965009 51.298103 88.802734 51.275391 z "
           style="fill:none;fill-opacity:1;fill-rule:evenodd;stroke:#eaa45f;stroke-width:1.852;stroke-linecap:round;stroke-linejoin:round;stroke-miterlimit:4;stroke-dasharray:none;stroke-opacity:1"
           id="path4592"
           d="m 88.792969,53.060547 c -1.126758,-0.0061 -1.922949,0.25346 -2.339844,0.599609 0.141503,-0.11749 -0.339403,0.457883 -0.808594,1.382813 -0.46919,0.924929 -1.061886,2.219115 -1.804687,3.78125 -7.606221,15.996117 -13.034907,40.213021 -23.25,63.539061 -0.943009,2.15335 -2.527369,4.07942 -4.025391,6.08008 -1.498022,2.00066 -2.911118,4.0452 -3.642578,6.09961 l -8.705078,24.40625 25.021484,5.78711 c 0.511961,-2.54371 4.180809,-20.69736 9.417969,-42.83399 5.614252,-23.730527 12.544325,-50.120676 18.523438,-61.861324 0.529882,-1.040487 0.788001,-1.865631 0.882812,-2.396485 0.09481,-0.530853 -0.08888,-0.793242 0.113281,-0.416015 -0.237239,-0.442652 -1.708334,-1.754786 -3.574219,-2.646485 -1.865884,-0.891699 -4.119551,-1.512268 -5.808593,-1.521484 z"
           transform="translate(14.967094,31.430896)" />
        <path
           inkscape:connector-curvature="0"
           style="fill:#c26c18;fill-opacity:1;fill-rule:evenodd;stroke:none;stroke-width:1.85208333;stroke-linecap:round;stroke-linejoin:round;stroke-miterlimit:4;stroke-dasharray:none;stroke-opacity:1"
           d="m 59.45637,189.54806 c 5.853963,-0.70422 26.617847,5.41743 26.125235,8.77131 -0.584686,3.98078 -25.903677,-0.57866 -28.357356,-3.16216 -1.414186,-1.489 -0.646968,-4.76223 1.481013,-5.4545 0.211475,-0.0688 0.463208,-0.12002 0.751108,-0.15465 z"
           id="path1059" />
        <path
           style="fill:url(#linearGradient913);fill-opacity:1;fill-rule:evenodd;stroke:#5b686c;stroke-width:1.85208333;stroke-linecap:round;stroke-linejoin:round;stroke-miterlimit:4;stroke-dasharray:none;stroke-opacity:1"
           d="m 44.185417,183.75833 -1.211863,11.5896 c 32.048096,7.94516 49.683342,8.47017 75.885206,11.9259 l 9.55363,-0.0236 -33.457221,-27.79654 z m 15.270953,5.78973 c 5.853963,-0.70422 26.617847,5.41743 26.125235,8.77131 -0.584686,3.98078 -25.903677,-0.57866 -28.357356,-3.16216 -1.414186,-1.489 -0.646968,-4.76223 1.481013,-5.4545 0.211475,-0.0688 0.463208,-0.12002 0.751108,-0.15465 z"
           id="path4691"
           inkscape:connector-curvature="0"
           sodipodi:nodetypes="ccccccccccc" />
        <path
           style="fill:#888a85;fill-opacity:1;fill-rule:evenodd;stroke:none;stroke-width:1.85208333;stroke-linecap:round;stroke-linejoin:round;stroke-miterlimit:4;stroke-dasharray:none;stroke-opacity:1"
           d="m 114.86432,170.91862 6.1087,0.74286 c 4.29319,2.80618 13.21587,24.47073 7.43933,35.58872 l -8.70157,-3.89423"
           id="path4697"
           inkscape:connector-curvature="0"
           sodipodi:nodetypes="cccc" />
        <path
           style="opacity:0.697;fill:none;fill-rule:evenodd;stroke:#eeeeec;stroke-width:1.85208333;stroke-linecap:butt;stroke-linejoin:miter;stroke-miterlimit:4;stroke-dasharray:none;stroke-opacity:1;filter:url(#filter4858)"
           d="m 104.20839,140.96804 c 7.41796,10.08134 6.92401,25.50232 4.20949,31.15026"
           id="path4600"
           inkscape:connector-curvature="0"
           sodipodi:nodetypes="cc"
           clip-path="url(#clipPath4870)"
           transform="translate(14.967094,31.430896)" />
        <path
           style="fill:url(#linearGradient895);fill-opacity:1;fill-rule:evenodd;stroke:#5b686c;stroke-width:1.85208333;stroke-linecap:round;stroke-linejoin:round;stroke-miterlimit:4;stroke-dasharray:none;stroke-opacity:1"
           d="m 114.86432,170.91862 c 6.62305,7.21389 8.97676,22.67523 4.84646,32.43735 -27.283718,-8.5829 -46.409658,-14.80721 -75.525363,-19.59764 l 8.699498,-18.63618 c 26.833534,3.7029 45.394462,7.08712 61.979405,5.79647 z"
           id="path4687"
           inkscape:connector-curvature="0"
           sodipodi:nodetypes="ccccc" />
        <path
           sodipodi:nodetypes="cccc"
           inkscape:connector-curvature="0"
           id="path4862"
           d="m 114.86432,170.91862 6.1087,0.74286 c 4.29319,2.80618 13.21587,24.47073 7.43933,35.58872 l -8.70157,-3.89423"
           style="fill:none;fill-opacity:1;fill-rule:evenodd;stroke:#5b686c;stroke-width:1.85208333;stroke-linecap:round;stroke-linejoin:round;stroke-miterlimit:4;stroke-dasharray:none;stroke-opacity:1" />
        <path
           sodipodi:type="inkscape:offset"
           inkscape:radius="-1.8328402"
           inkscape:original="M 52.884766 165.12305 L 44.185547 183.75781 C 73.301252 188.54824 92.42722 194.77257 119.71094 203.35547 C 123.84124 193.59335 121.48828 178.13186 114.86523 170.91797 C 98.280291 172.20862 79.7183 168.82595 52.884766 165.12305 z "
           style="fill:none;fill-opacity:1;fill-rule:evenodd;stroke:#eeeeec;stroke-width:1.85208333;stroke-linecap:round;stroke-linejoin:miter;stroke-miterlimit:4;stroke-dasharray:none;stroke-opacity:1"
           id="path215"
           d="m 53.972656,167.12305 -7.130859,15.27734 c 27.197733,4.64355 46.148622,10.62474 71.683593,18.66406 1.39992,-4.24794 1.74703,-9.52372 0.98242,-14.61133 -0.81219,-5.40425 -2.84271,-10.44366 -5.54883,-13.69335 -16.341938,1.08599 -34.536843,-2.09521 -59.986324,-5.63672 z" />
      </g>
      <g
         id="g4681"
         transform="matrix(0.3721088,0.16546043,-0.16546043,0.3721088,29.542699,195.2038)">
        <path
           id="path4637"
           style="fill:#eeeeec;fill-opacity:1;fill-rule:evenodd;stroke:#5b686c;stroke-width:1.85208333;stroke-linecap:round;stroke-linejoin:round;stroke-miterlimit:4;stroke-dasharray:none;stroke-opacity:1"
           d="m 43.917558,137.44409 c -7.351495,1.34863 -5.344791,6.06438 -2.39914,8.54639 17.893001,15.0767 67.290282,16.17609 87.609432,-0.046 3.37003,-2.69051 5.35245,-7.38426 -2.01605,-8.33388"
           inkscape:connector-curvature="0"
           sodipodi:nodetypes="cssc" />
        <path
           sodipodi:nodetypes="sccccssss"
           inkscape:connector-curvature="0"
           d="M 127.1118,137.6106 94.187158,89.113094 91.919301,58.497023 H 78.997023 L 76.729166,89.113094 43.917558,137.44409 c -1.556167,2.29221 -2.421039,3.66736 0.511277,6.16511 17.124879,14.58701 63.913075,13.84351 81.259435,0.61546 3.42902,-2.61492 3.23578,-3.94465 1.42353,-6.61406 z"
           style="fill:url(#linearGradient4683);fill-opacity:1;fill-rule:evenodd;stroke:#555753;stroke-width:1.85208333;stroke-linecap:round;stroke-linejoin:round;stroke-miterlimit:4;stroke-dasharray:none;stroke-opacity:1"
           id="path4639" />
        <path
           style="fill:none;fill-rule:evenodd;stroke:#eeeeec;stroke-width:1.85208333;stroke-linecap:butt;stroke-linejoin:miter;stroke-miterlimit:4;stroke-dasharray:none;stroke-opacity:1"
           d="M 90.081312,90.310813 119.01792,147.26754"
           id="path4641"
           inkscape:connector-curvature="0" />
        <path
           inkscape:connector-curvature="0"
           id="path4643"
           d="M 88.493811,90.310813 117.43041,147.26754"
           style="fill:none;fill-rule:evenodd;stroke:#5b686c;stroke-width:1.85208333;stroke-linecap:butt;stroke-linejoin:miter;stroke-miterlimit:4;stroke-dasharray:none;stroke-opacity:1" />
        <path
           id="path4645"
           style="fill:url(#linearGradient4685);fill-opacity:1;fill-rule:evenodd;stroke:none;stroke-width:1.85208333;stroke-linecap:round;stroke-linejoin:round;stroke-miterlimit:4;stroke-dasharray:none;stroke-opacity:1"
           d="M 94.187158,89.113094 91.919301,58.497023 H 78.997023 l -2.267857,30.616071 c 4.264904,2.953685 13.523818,3.216004 17.457992,0 z"
           inkscape:connector-curvature="0"
           sodipodi:nodetypes="ccccc" />
        <path
           sodipodi:nodetypes="cc"
           inkscape:connector-curvature="0"
           d="m 76.729166,89.113094 c 4.264904,2.953685 13.523818,3.216004 17.457992,0"
           style="fill:none;fill-opacity:1;fill-rule:evenodd;stroke:#eeeeec;stroke-width:1.85208333;stroke-linecap:round;stroke-linejoin:round;stroke-miterlimit:4;stroke-dasharray:none;stroke-opacity:1"
           id="path4647" />
        <path
           d="m 80.654297,60.28125 -2.144531,28.964844 a 1.7861164,1.7861164 0 0 1 -0.302735,0.871094 L 45.396484,138.44727 c -0.771117,1.13584 -1.110104,1.85094 -1.121093,2.08593 -0.01099,0.235 0.03554,0.62908 1.3125,1.7168 7.939838,6.76317 23.639807,10.3283 39.386718,10.3125 15.746911,-0.0158 31.560491,-3.60348 39.630861,-9.75781 1.58566,-1.20921 1.95798,-1.90731 1.99414,-2.14063 0.0362,-0.23331 -0.12149,-0.8037 -0.9668,-2.04883 L 92.708984,90.117188 A 1.7861164,1.7861164 0 0 1 92.40625,89.246094 L 90.261719,60.28125 Z"
           id="path4649"
           style="fill:none;fill-opacity:1;fill-rule:evenodd;stroke:#eeeeec;stroke-width:1.85208333;stroke-linecap:round;stroke-linejoin:round;stroke-miterlimit:4;stroke-dasharray:none;stroke-opacity:1"
           inkscape:original="M 78.996094 58.496094 L 76.728516 89.113281 L 43.917969 137.44336 C 42.361802 139.73557 41.497371 141.11163 44.429688 143.60938 C 61.554566 158.19638 108.34114 157.45266 125.6875 144.22461 C 129.11652 141.60969 128.92358 140.28074 127.11133 137.61133 L 94.1875 89.113281 L 91.919922 58.496094 L 78.996094 58.496094 z "
           inkscape:radius="-1.7859378"
           sodipodi:type="inkscape:offset" />
        <path
           sodipodi:nodetypes="sccccssss"
           inkscape:connector-curvature="0"
           d="M 127.1118,137.6106 94.187158,89.113094 91.919301,58.497023 H 78.997023 L 76.729166,89.113094 43.917558,137.44409 c -1.556167,2.29221 -2.421039,3.66736 0.511277,6.16511 17.124879,14.58701 63.913075,13.84351 81.259435,0.61546 3.42902,-2.61492 3.23578,-3.94465 1.42353,-6.61406 z"
           style="fill:none;fill-opacity:1;fill-rule:evenodd;stroke:#5b686c;stroke-width:1.85208333;stroke-linecap:round;stroke-linejoin:round;stroke-miterlimit:4;stroke-dasharray:none;stroke-opacity:1"
           id="path4651" />
        <ellipse
           cx="85.457176"
           cy="58.497025"
           rx="6.4601536"
           ry="2.1448863"
           id="ellipse4653"
           style="opacity:1;fill:#2e3436;fill-opacity:1;fill-rule:evenodd;stroke:#5b686c;stroke-width:1.85208333;stroke-linecap:round;stroke-linejoin:miter;stroke-miterlimit:4;stroke-dasharray:none;stroke-opacity:1" />
        <g
           id="g4679">
          <g
             id="g4665"
             transform="translate(-32.511153,18.576698)">
            <path
               id="path4655"
               transform="scale(0.26458333)"
               d="m 555.71289,433.82617 c -7.96988,-0.2003 -7.62535,10.19 -2.6543,23.76172 19.36903,52.88056 54.52898,49.77447 53.08594,27.04492 -19.40307,14.62859 -46.86576,-36.06191 -38.53906,-46.18945 -5.13061,-3.10674 -9.04796,-4.5457 -11.89258,-4.61719 z"
               style="fill:#888a85;fill-opacity:1;fill-rule:evenodd;stroke:none;stroke-width:7;stroke-linecap:butt;stroke-linejoin:miter;stroke-miterlimit:4;stroke-dasharray:none;stroke-opacity:1"
               inkscape:connector-curvature="0" />
            <path
               transform="scale(0.26458333)"
               id="path4657"
               d="m 569.99609,424.23242 c -2.04511,0.0106 -3.90394,0.45097 -5.5039,1.39063 -4.87918,2.86552 -12.31446,9.09375 -12.31446,9.09375 l 0.0137,0.0195 c 4.39367,-2.9395 14.49907,1.02912 32.73828,16.74805 24.42487,21.04988 24.9407,39.77025 15.81836,46.27343 l 0.002,0.004 c 0,0 14.0161,-6.15891 17.55469,-14.03125 8.74247,-19.4495 -28.53914,-59.6005 -48.3086,-59.49805 z"
               style="fill:#eeeeec;fill-opacity:1;fill-rule:evenodd;stroke:none;stroke-width:7;stroke-linecap:butt;stroke-linejoin:miter;stroke-miterlimit:4;stroke-dasharray:none;stroke-opacity:1"
               inkscape:connector-curvature="0" />
            <path
               sodipodi:nodetypes="sss"
               inkscape:connector-curvature="0"
               id="path4659"
               d="m 154.76255,119.45529 c -9.39062,-8.09303 -10.64786,-4.43288 -8.43269,1.61487 7.11069,19.41333 22.26894,10.30951 8.43269,-1.61487 z"
               style="fill:none;fill-rule:evenodd;stroke:#5b686c;stroke-width:1.85208333;stroke-linecap:butt;stroke-linejoin:miter;stroke-miterlimit:4;stroke-dasharray:none;stroke-opacity:1" />
            <path
               sodipodi:nodetypes="cc"
               inkscape:connector-curvature="0"
               id="path4661"
               d="m 150.18049,116.00318 c -2.20767,2.67598 5.06206,16.09657 10.19693,12.2215"
               style="fill:none;fill-rule:evenodd;stroke:#5b686c;stroke-width:1.85208333;stroke-linecap:butt;stroke-linejoin:miter;stroke-miterlimit:4;stroke-dasharray:none;stroke-opacity:1" />
            <path
               sodipodi:nodetypes="cssc"
               inkscape:connector-curvature="0"
               id="path4663"
               d="m 146.097,115.01858 c 0,0 1.96739,-1.6476 3.25834,-2.40577 4.51545,-2.65191 16.79,9.69592 14.2376,15.37428 -0.93625,2.08289 -4.64426,3.71241 -4.64426,3.71241"
               style="fill:none;fill-rule:evenodd;stroke:#5b686c;stroke-width:1.85208333;stroke-linecap:butt;stroke-linejoin:miter;stroke-miterlimit:4;stroke-dasharray:none;stroke-opacity:1" />
          </g>
          <g
             id="g4671"
             transform="translate(1.5207839,2.0933987)">
            <ellipse
               transform="matrix(0.95158136,-0.30739699,0.50975563,0.86031924,0,0)"
               ry="2.5629523"
               rx="1.5690926"
               cy="177.50952"
               cx="29.082403"
               id="ellipse4667"
               style="opacity:1;fill:#babdb6;fill-opacity:1;fill-rule:evenodd;stroke:none;stroke-width:3.11946464;stroke-linecap:round;stroke-linejoin:miter;stroke-miterlimit:4;stroke-dasharray:none;stroke-opacity:1" />
            <path
               sodipodi:nodetypes="cc"
               inkscape:connector-curvature="0"
               id="path4669"
               d="m 116.83698,142.80014 c 0.14783,1.00458 1.04777,2.14832 1.83594,2.44612"
               style="fill:none;fill-rule:evenodd;stroke:#eeeeec;stroke-width:0.79374999;stroke-linecap:round;stroke-linejoin:miter;stroke-miterlimit:4;stroke-dasharray:none;stroke-opacity:1" />
          </g>
          <g
             transform="rotate(19.899639,129.64668,136.40095)"
             id="g4677">
            <ellipse
               style="opacity:1;fill:#babdb6;fill-opacity:1;fill-rule:evenodd;stroke:none;stroke-width:3.11946464;stroke-linecap:round;stroke-linejoin:miter;stroke-miterlimit:4;stroke-dasharray:none;stroke-opacity:1"
               id="ellipse4673"
               cx="29.082403"
               cy="177.50952"
               rx="1.5690926"
               ry="2.5629523"
               transform="matrix(0.95158136,-0.30739699,0.50975563,0.86031924,0,0)" />
            <path
               style="fill:none;fill-rule:evenodd;stroke:#eeeeec;stroke-width:0.79374999;stroke-linecap:round;stroke-linejoin:miter;stroke-miterlimit:4;stroke-dasharray:none;stroke-opacity:1"
               d="m 116.83698,142.80014 c 0.14783,1.00458 1.04777,2.14832 1.83594,2.44612"
               id="path4675"
               inkscape:connector-curvature="0"
               sodipodi:nodetypes="cc" />
          </g>
        </g>
      </g>
    </g>
  </g>
</svg>
